<?xml version="1.0" encoding="UTF-8" standalone="no"?>
<!-- Created with Inkscape (http://www.inkscape.org/) -->

<svg
   xmlns:dc="http://purl.org/dc/elements/1.1/"
   xmlns:cc="http://creativecommons.org/ns#"
   xmlns:rdf="http://www.w3.org/1999/02/22-rdf-syntax-ns#"
   xmlns:svg="http://www.w3.org/2000/svg"
   xmlns="http://www.w3.org/2000/svg"
   xmlns:sodipodi="http://sodipodi.sourceforge.net/DTD/sodipodi-0.dtd"
   xmlns:inkscape="http://www.inkscape.org/namespaces/inkscape"
   id="svg4527"
   version="1.1"
   inkscape:version="0.48.5 r10040"
   width="525"
   height="666"
   sodipodi:docname="japanese - love.svg">
  <metadata
     id="metadata4533">
    <rdf:RDF>
      <cc:Work
         rdf:about="">
        <dc:format>image/svg+xml</dc:format>
        <dc:type
           rdf:resource="http://purl.org/dc/dcmitype/StillImage" />
        <dc:title></dc:title>
      </cc:Work>
    </rdf:RDF>
  </metadata>
  <defs
     id="defs4531" />
  <sodipodi:namedview
     pagecolor="#ffffff"
     bordercolor="#666666"
     borderopacity="1"
     objecttolerance="10"
     gridtolerance="10"
     guidetolerance="10"
     inkscape:pageopacity="0"
     inkscape:pageshadow="2"
     inkscape:window-width="1366"
     inkscape:window-height="745"
     id="namedview4529"
     showgrid="false"
     showborder="false"
     inkscape:showpageshadow="false"
     inkscape:zoom="0.70710678"
     inkscape:cx="262.5"
     inkscape:cy="333"
     inkscape:window-x="-8"
     inkscape:window-y="-8"
     inkscape:window-maximized="1"
     inkscape:current-layer="svg4527"
     showguides="true"
     inkscape:guide-bbox="true" />
  <g
     id="g5296">
    <path
       sodipodi:nodetypes="sacaaas"
       inkscape:connector-curvature="0"
       id="path4584"
       d="m 284.25693,192.23846 c 3.23003,-13.09344 15.25135,-26.36208 18.38478,-41.0122 3.64805,-17.0562 -10e-6,-52.325901 -10e-6,-52.325901 0,0 44.98383,6.234811 50.91169,24.041631 2.86407,8.60345 -7.52467,16.61543 -12.72792,24.04163 -7.66057,10.93334 -16.31496,21.52462 -26.87006,29.69849 -8.83575,6.8424 -32.3751,26.40645 -29.69848,15.55635 z"
       style="fill:#000000;stroke:#000000;stroke-width:1px;stroke-linecap:butt;stroke-linejoin:miter;stroke-opacity:1" />
    <path
       sodipodi:nodetypes="aaaasaca"
       inkscape:connector-curvature="0"
       id="path4586"
       d="m 207.53552,141.32595 c 5.42425,-4.68927 12.95936,-6.86651 20.04441,-8.78301 3.45084,-0.93345 7.75134,-3.19243 10.69036,-1.25472 11.58526,7.63818 8.45482,25.63121 9.35405,38.8962 0.59688,8.80495 4.57634,20.73532 -2.67258,26.34905 -2.09725,1.62416 -5.76189,-21.90885 -13.36295,-30.11319 -7.47063,-8.06356 -29.39847,-16.31131 -29.39847,-16.31131 0,0 2.70325,-6.49907 5.34518,-8.78302 z"
       style="fill:#000000;stroke:#000000;stroke-width:0.91560644px;stroke-linecap:butt;stroke-linejoin:miter;stroke-opacity:1" />
    <path
       sodipodi:nodetypes="sccacaacs"
       inkscape:connector-curvature="0"
       id="path4592"
       d="M 40.202844,153.18613 C 5.827341,156.4348 133.63617,117.63391 133.63617,117.63391 l 104.4863,-32.82287 c 0,0 39.82879,-18.493896 53.35514,-35.319534 9.78533,-12.172137 17.35806,-44.0542758 17.35806,-44.0542758 0,0 45.64172,15.9739568 52.22038,35.1447268 3.0743,8.958717 -2.62829,20.000006 -9.58283,26.764251 -33.12746,32.220966 -133.84369,47.089762 -133.84369,47.089762 0,0 -118.638968,33.1944 -177.426686,38.75016 z"
       style="fill:#000000;stroke:#000000;stroke-width:1.93756652px;stroke-linecap:butt;stroke-linejoin:miter;stroke-opacity:1" />
    <g
       transform="matrix(1.5090174,0,0,1,-132.02719,0)"
       id="g4616">
      <path
         id="path4594"
         transform="matrix(0.66268288,0,0,1,87.492159,0)"
         d="M 437.78125 192.25 L 437.78125 192.3125 C 431.64895 192.46941 333.87385 195.01532 284.125 200.71875 C 229.717 206.95633 171.01375 209.74329 124.0625 229 C 110.34894 234.62452 76.891201 256.68798 92.0625 253.0625 C 125.72083 245.01917 181.6875 236.09375 181.6875 236.09375 C 181.6875 236.09375 249.53666 224.20712 284.125 220.53125 C 314.45786 217.30763 375.875 214.875 375.875 214.875 L 439.1875 211.0625 L 439.90625 220.53125 C 439.90625 220.53125 425.7295 241.74346 422.84375 253.0625 C 421.18471 259.56994 422.84375 272.84375 422.84375 272.84375 C 422.84375 272.84375 492.28732 248.59612 497.53125 226.1875 C 498.6536 221.39142 491.83597 216.98869 486.84375 213.4375 C 474.91342 204.95091 446.28773 195.11442 440.1875 193.0625 L 439.90625 192.25 C 439.90625 192.25 438.10634 192.30819 437.9375 192.3125 C 437.93413 192.31139 437.78125 192.25 437.78125 192.25 z "
         style="fill:#000000;stroke:#000000;stroke-width:1.22842073px;stroke-linecap:butt;stroke-linejoin:miter;stroke-opacity:1" />
    </g>
    <path
       sodipodi:nodetypes="sccaaas"
       style="fill:#000000;stroke:#000000;stroke-width:1.05571711px;stroke-linecap:butt;stroke-linejoin:miter;stroke-opacity:1"
       d="m 80.754538,220.68875 c -1.557886,11.07619 -16.935762,53.17391 -16.935762,53.17391 l -23.05616,56.20116 c 0,0 21.28893,26.55248 31.775892,19.61087 7.04011,-4.66006 6.82051,-21.62075 8.88707,-33.16787 3.04253,-17.00044 5.33172,-34.73178 5.0303,-52.3841 -0.25232,-14.77689 -3.667535,-57.89383 -5.70134,-43.43397 z"
       id="path4598"
       inkscape:connector-curvature="0" />
    <path
       sodipodi:nodetypes="sccaaas"
       inkscape:connector-curvature="0"
       id="path4600"
       d="m 147.78681,275.6022 c -5.58372,11.38784 -15.40013,47.48758 -15.40013,47.48758 l -20.96557,50.19108 c 0,0 19.17463,23.07378 28.89465,17.51371 7.13774,-4.08295 6.21238,-19.40084 8.08124,-29.62095 2.79161,-15.2663 4.8495,-31.05533 4.57419,-46.78222 -0.23,-13.13789 0.17655,-49.72267 -5.18438,-38.7892 z"
       style="fill:#000000;stroke:#000000;stroke-width:0.9513669px;stroke-linecap:butt;stroke-linejoin:miter;stroke-opacity:1" />
    <path
       sodipodi:nodetypes="saaacaaas"
       style="fill:#000000;stroke:#000000;stroke-width:1.05219448px;stroke-linecap:butt;stroke-linejoin:miter;stroke-opacity:1"
       d="m 74.955083,562.44397 c 13.950312,-18.01009 37.714387,-29.52088 55.799207,-45.38842 11.20779,-9.83366 22.9563,-19.18441 32.6211,-30.83378 13.31075,-16.04398 24.73842,-34.11659 34.3515,-53.09218 9.74256,-19.23115 10.71103,-45.28123 23.28682,-60.88016 0,0 17.68985,24.59259 17.87371,39.45033 0.10138,8.19143 -5.2086,15.40603 -9.31195,22.06979 -16.28513,26.44678 -36.97022,49.51116 -59.42408,68.9314 -28.92798,25.01968 -111.088916,80.26065 -95.196307,59.74302 z"
       id="path4602"
       inkscape:connector-curvature="0" />
    <path
       sodipodi:nodetypes="cccacccscaaaacaacc"
       inkscape:connector-curvature="0"
       id="path4604"
       d="m 203.96525,430.66249 c 0,0 18.7077,6.64654 41.43846,5.70644 26.91906,0.76281 81.74045,-14.14809 87.31076,-3.9095 7.63198,16.45554 -19.06915,28.01863 -30.58181,40.68228 -9.30164,10.23156 -30.86977,28.26559 -30.86977,28.26559 l -43.58082,34.68958 -96.24103,64.23997 c 0,0 -51.683102,27.22797 -67.375196,41.44593 -23.963696,21.71249 92.797356,-37.59153 92.797356,-37.59153 0,0 49.45746,-26.85351 73.47626,-41.28428 17.63675,-10.59635 35.62056,-20.89353 51.81866,-33.23409 21.55368,-16.42073 41.45712,-34.69543 59.92363,-53.96157 13.30847,-13.88475 29.42103,-26.93997 36.45019,-44.19529 3.2033,-7.86355 1.81587,-25.09401 1.81587,-25.09401 0,0 -30.05,-6.78372 -45.31915,-6.25328 -19.10289,0.66361 -37.33957,7.47807 -55.87115,11.73389 -25.19993,5.78722 -75.19226,18.75988 -75.19226,18.75988 z"
       style="fill:#000000;stroke:#000000;stroke-width:1.0800525px;stroke-linecap:butt;stroke-linejoin:miter;stroke-opacity:1" />
    <path
       sodipodi:nodetypes="scacaaccas"
       inkscape:connector-curvature="0"
       id="path4606"
       d="m 206.94792,458.2424 c 37.91804,24.44865 167.05812,92.47984 167.05812,92.47984 0,0 39.15634,17.13931 60.42529,21.22487 21.98281,4.2227 67.53415,3.03213 67.53415,3.03213 0,0 -9.2834,29.16615 -21.32658,39.41763 -5.98661,5.09597 -14.60841,9.12323 -23.10378,9.09638 -22.29693,-0.0705 -60.42529,-24.25701 -60.42529,-24.25701 -46.78488,-20.7513 -81.499,-49.56992 -120.85056,-78.83526 0,0 -44.82536,-27.12354 -60.75723,-45.65219 -4.1779,-4.85887 -14.20385,-20.1492 -8.55412,-16.50639 z"
       style="fill:#000000;stroke:#000000;stroke-width:1.16068256px;stroke-linecap:butt;stroke-linejoin:miter;stroke-opacity:1" />
    <path
       sodipodi:nodetypes="saaaaas"
       style="fill:#000000;stroke:#000000;stroke-width:0.79806143px;stroke-linecap:butt;stroke-linejoin:miter;stroke-opacity:1"
       d="m 366.75967,250.22806 c 5.22491,12.10195 15.39287,19.50911 22.22119,29.66939 7.70032,11.45777 5.36665,32.46987 21.09235,35.21303 10.96616,1.91292 24.3216,-8.46496 25.84803,-17.48087 1.1711,-6.9171 -9.00835,-11.97322 -14.63926,-17.25314 -8.11665,-7.61071 -16.92026,-15.0083 -27.30177,-20.51687 -8.28445,-4.39584 -30.49302,-17.21126 -27.22054,-9.63154 z"
       id="path4608"
       inkscape:connector-curvature="0" />
    <path
       inkscape:connector-curvature="0"
       id="path4612"
       d="m 288.77384,262.47024 c 2.12642,7.27938 10.43091,16.29443 15.05809,24.78052 5.21809,9.56978 3.63669,27.11954 14.29314,29.41069 7.43117,1.59771 16.48142,-7.07012 17.5158,-14.6004 0.79359,-5.77732 -6.10447,-10.0003 -9.92023,-14.4102 -5.50021,-6.35663 -11.46594,-12.53526 -18.50092,-17.13614 -5.61392,-3.6715 -20.32676,-14.48328 -18.44588,-8.04447 z"
       style="fill:#000000;stroke:#000000;stroke-width:0.60039699px;stroke-linecap:butt;stroke-linejoin:miter;stroke-opacity:1"
       sodipodi:nodetypes="saaaaas" />
    <path
       style="fill:#000000;stroke:#000000;stroke-width:0.83482873px;stroke-linecap:butt;stroke-linejoin:miter;stroke-opacity:1"
       d="m 147.48443,173.69563 c 2.43761,-5.70484 7.79813,-10.22745 12.89798,-14.37741 2.48392,-2.02127 5.08064,-5.39979 8.44019,-4.97746 13.24298,1.66475 18.79536,16.9496 25.59214,27.0201 4.51151,6.68453 11.56947,14.07465 9.74234,21.66913 -1.33562,5.55153 -14.83078,-15.0353 -24.97303,-18.6324 -9.96821,-3.53538 -32.20693,-1.81511 -32.20693,-1.81511 0,0 -0.67994,-6.10826 0.50731,-8.88685 z"
       id="path4614"
       inkscape:connector-curvature="0"
       sodipodi:nodetypes="aaaasaca" />
    <g
       id="g4620"
       transform="matrix(0.79834464,0.35685593,0.59412142,-0.86871908,-52.462699,428.27676)">
      <path
         id="path4622"
         transform="matrix(0.95932442,0.39407516,0.65608687,-0.88161009,-230.65801,398.24736)"
         d="M 192.84375 246.1875 C 190.42279 246.54515 209.46605 277.8837 219.09375 289.90625 C 239.70389 315.64306 268.42136 341.58977 293.5 359.875 C 315.64707 375.63302 384.76295 412.35876 407.84375 386.875 C 410.92035 385.37085 413.58358 383.37777 414.96875 380.65625 C 425.5079 359.94936 413.40936 344.25015 403.1875 322.46875 C 388.11258 320.36713 388.826 349.97957 383.125 354.65625 C 379.12822 357.93491 368.39545 364.62012 357.375 364.34375 C 351.3605 364.19291 345.31457 361.30191 339.8125 359.75 C 339.80254 359.74719 339.7912 359.7528 339.78125 359.75 C 325.18412 352.65813 311.63751 344.24213 298.71875 335.125 C 282.60373 323.75217 253.75 297.375 253.75 297.375 C 253.75 297.375 206.7981 258.56549 194.3125 247.125 C 193.56875 246.44351 193.09419 246.1505 192.84375 246.1875 z "
         style="fill:#000000;stroke:#000000;stroke-width:0.9516055px;stroke-linecap:butt;stroke-linejoin:miter;stroke-opacity:1" />
    </g>
  </g>
</svg>
